<svg width="1044" height="277" viewBox="0 0 1044 277" fill="none" xmlns="http://www.w3.org/2000/svg">
<path fill-rule="evenodd" clip-rule="evenodd" d="M245.301 137.067C245.312 157.717 250.732 174.442 257.413 174.442C264.097 174.442 269.52 157.703 269.531 137.077C269.52 116.427 264.108 99.6948 257.42 99.6948C250.732 99.6983 245.29 116.431 245.301 137.067Z" fill="#020617"/>
<path fill-rule="evenodd" clip-rule="evenodd" d="M93.6102 13.6616C38.3329 35.3838 4.20602e-06 82.8187 4.20602e-06 137.815C-0.0146631 192.821 38.3329 240.249 93.6359 261.961C61.9509 236.012 40.9034 190.097 40.9034 137.818C40.9034 85.5392 61.9656 39.6276 93.6102 13.6616Z" fill="#020617"/>
<path fill-rule="evenodd" clip-rule="evenodd" d="M132.258 0C106.348 0 85.3113 61.9534 85.3113 138.304C85.3113 214.699 106.344 276.615 132.276 276.621C145.077 276.615 156.697 261.468 165.164 236.932C172.329 253.435 181.349 263.297 191.139 263.297C214.486 263.304 233.425 207.548 233.407 138.783C233.425 70.0211 214.501 14.2548 191.161 14.2825C181.441 14.2825 172.486 23.9881 165.343 40.252C156.855 15.3999 145.172 0.01388 132.258 0ZM227.14 138.79C227.158 177.379 217.005 208.686 204.501 208.686C191.99 208.686 181.855 177.376 181.855 138.803C181.855 100.193 191.99 68.8968 204.501 68.883C217.02 68.8934 227.155 100.186 227.14 138.79ZM163.217 45.4154C154.434 68.2341 148.89 101.598 148.89 138.786C148.887 175.648 154.332 208.762 162.975 231.56C158.758 236.97 154.108 239.971 149.231 239.971C130.156 239.957 114.712 194.455 114.712 138.304C114.712 82.18 130.156 36.6571 149.206 36.6571C154.2 36.6675 158.941 39.8044 163.217 45.4154Z" fill="#020617"/>
<path d="M344 205.4C332.267 205.4 322.067 202.867 313.4 197.8C304.867 192.6 298.267 185.267 293.6 175.8C289.067 166.333 286.8 155.133 286.8 142.2C286.8 131.8 288.333 122.333 291.4 113.8C294.467 105.133 298.867 97.7333 304.6 91.6C310.467 85.3333 317.4 80.5333 325.4 77.2C333.533 73.8667 342.533 72.2 352.4 72.2C364.533 72.2 374.867 74.7333 383.4 79.8C392.067 84.8667 398.733 92.0667 403.4 101.4C408.067 110.733 410.4 121.867 410.4 134.8C410.4 145.467 408.8 155.133 405.6 163.8C402.4 172.333 397.867 179.733 392 186C386.133 192.133 379.133 196.933 371 200.4C362.867 203.733 353.867 205.4 344 205.4ZM349.2 188.4C355.6 188.4 361.067 186.733 365.6 183.4C370.133 180.067 373.6 175.2 376 168.8C378.533 162.267 379.8 154.4 379.8 145.2C379.8 133.467 378.467 123.6 375.8 115.6C373.267 107.6 369.533 101.533 364.6 97.4C359.667 93.2667 353.733 91.2 346.8 91.2C340.533 91.2 335.133 92.9333 330.6 96.4C326.2 99.7333 322.8 104.6 320.4 111C318 117.4 316.8 125.2 316.8 134.4C316.8 146 318.067 155.867 320.6 164C323.267 172 327 178.067 331.8 182.2C336.733 186.333 342.533 188.4 349.2 188.4ZM421.961 250.2L423.561 238C427.294 237.6 429.694 236.6 430.761 235C431.961 233.4 432.628 230.2 432.761 225.4C432.894 222.867 433.028 219.733 433.161 216C433.294 212.4 433.428 208.667 433.561 204.8C433.694 201.067 433.761 197.733 433.761 194.8V138.2C433.761 133.667 433.028 130.533 431.561 128.8C430.228 127.067 427.694 126.2 423.961 126.2H421.361L420.561 125.2L421.561 114.8C427.561 113.867 433.361 112.933 438.961 112C444.561 110.933 449.094 110.067 452.561 109.4C456.161 108.6 457.961 108.2 457.961 108.2L459.761 110.2C459.761 110.2 459.428 111.6 458.761 114.4C458.228 117.067 457.828 119.867 457.561 122.8L458.361 123.8C463.561 119 467.894 115.4 471.361 113C474.828 110.467 477.228 109.2 478.561 109.2C486.428 109.2 493.294 111 499.161 114.6C505.161 118.2 509.828 123.333 513.161 130C516.494 136.533 518.161 144.2 518.161 153C518.161 160.867 516.828 168 514.161 174.4C511.628 180.667 507.961 186.133 503.161 190.8C498.494 195.333 492.894 198.867 486.361 201.4C479.961 203.8 472.894 205 465.161 205C464.228 205 463.028 204.933 461.561 204.8C460.228 204.667 459.028 204.533 457.961 204.4C456.894 204.4 456.361 204.4 456.361 204.4C456.361 207.333 456.361 210.333 456.361 213.4C456.494 216.6 456.561 219.8 456.561 223C456.561 228.2 456.961 231.8 457.761 233.8C458.561 235.8 460.561 236.8 463.761 236.8C465.228 236.8 466.761 236.733 468.361 236.6C470.094 236.467 471.294 236.4 471.961 236.4L472.361 237.2L470.161 249.4C469.361 249.4 467.961 249.333 465.961 249.2C464.094 249.2 461.961 249.133 459.561 249C457.294 249 454.961 249 452.561 249C450.161 249 448.028 249 446.161 249C442.428 249 438.694 249.067 434.961 249.2C431.228 249.467 428.094 249.667 425.561 249.8C423.161 250.067 421.961 250.2 421.961 250.2ZM472.161 188.8C478.694 188.8 483.761 186.4 487.361 181.6C490.961 176.667 492.761 169.667 492.761 160.6C492.761 154.067 491.894 148.4 490.161 143.6C488.561 138.8 486.228 135.133 483.161 132.6C480.228 129.933 476.761 128.6 472.761 128.6C470.894 128.6 468.628 129.2 465.961 130.4C463.294 131.467 460.761 132.933 458.361 134.8C458.094 140 457.828 145.6 457.561 151.6C457.428 157.6 457.294 163.6 457.161 169.6C457.161 175.467 457.161 180.867 457.161 185.8C458.628 186.333 460.761 187 463.561 187.8C466.361 188.467 469.228 188.8 472.161 188.8ZM573.783 205.4C564.449 205.4 556.383 203.533 549.583 199.8C542.916 196.067 537.716 190.733 533.983 183.8C530.383 176.867 528.583 168.733 528.583 159.4C528.583 152.067 529.783 145.333 532.183 139.2C534.583 133.067 537.916 127.733 542.183 123.2C546.449 118.533 551.449 114.933 557.183 112.4C562.916 109.733 569.116 108.4 575.783 108.4C598.183 108.4 609.383 119.733 609.383 142.4C609.383 144.4 609.183 146.467 608.783 148.6C608.516 150.733 608.249 152.4 607.983 153.6L605.583 156H553.783C554.049 165.2 556.183 172.4 560.183 177.6C564.316 182.667 570.049 185.467 577.383 186C584.716 186.533 593.316 184.533 603.183 180L604.583 180.8L607.783 190.6C605.116 192.6 601.783 194.8 597.783 197.2C593.783 199.467 589.649 201.4 585.383 203C581.116 204.6 577.249 205.4 573.783 205.4ZM553.783 145L581.183 143.4C582.783 143.267 583.783 142.933 584.183 142.4C584.716 141.733 584.983 140.533 584.983 138.8C584.983 134 583.916 130.333 581.783 127.8C579.649 125.267 576.516 124 572.383 124C567.183 124 562.916 125.8 559.583 129.4C556.383 132.867 554.449 138.067 553.783 145ZM679.566 192.2C682.899 191.533 685.232 190.333 686.566 188.6C688.032 186.733 688.832 184.2 688.966 181L689.566 146.4C689.566 140.533 688.499 136.2 686.366 133.4C684.232 130.467 680.966 129 676.566 129C674.432 129 672.166 129.467 669.766 130.4C667.499 131.2 665.432 132.2 663.566 133.4C661.699 134.6 660.166 135.667 658.966 136.6C658.832 140.2 658.632 144.267 658.366 148.8C658.099 153.333 657.832 157.867 657.566 162.4C657.432 166.8 657.299 170.733 657.166 174.2C657.032 177.667 656.966 180.133 656.966 181.6C656.966 185.067 657.432 187.467 658.366 188.8C659.299 190 660.832 190.6 662.966 190.6C663.899 190.6 665.032 190.6 666.366 190.6C667.699 190.467 668.366 190.4 668.366 190.4L668.766 191.2L666.766 203.6C666.766 203.6 665.566 203.533 663.166 203.4C660.766 203.267 657.899 203.133 654.566 203C651.366 203 648.432 203 645.766 203C642.299 203 638.699 203.067 634.966 203.2C631.366 203.467 628.299 203.667 625.766 203.8C623.366 204.067 622.166 204.2 622.166 204.2L623.766 191.8C627.632 191.267 630.299 190.2 631.766 188.6C633.366 187 634.166 184.333 634.166 180.6V138.2C634.166 133.667 633.432 130.533 631.966 128.8C630.632 127.067 628.099 126.2 624.366 126.2H621.766L620.966 125.2L621.966 114.8C628.099 113.867 633.966 112.933 639.566 112C645.166 110.933 649.766 110.067 653.366 109.4C656.966 108.6 658.766 108.2 658.766 108.2L660.366 110.2C660.366 110.2 660.032 111.667 659.366 114.6C658.832 117.4 658.432 120.533 658.166 124L658.966 124.8C660.566 123.467 662.499 121.867 664.766 120C667.166 118.133 669.632 116.333 672.166 114.6C674.832 112.867 677.299 111.4 679.566 110.2C681.832 109 683.632 108.4 684.966 108.4C694.432 108.4 701.766 110.667 706.966 115.2C712.299 119.733 714.966 126.067 714.966 134.2C714.966 136.2 714.766 139.267 714.366 143.4C713.966 147.533 713.499 152.067 712.966 157C712.566 161.933 712.166 166.6 711.766 171C711.499 175.4 711.366 178.867 711.366 181.4C711.366 184.733 711.832 187.2 712.766 188.8C713.699 190.267 715.299 191 717.566 191C718.766 191 720.099 190.933 721.566 190.8C723.032 190.667 723.766 190.6 723.766 190.6L724.166 191.4L722.366 203.6C722.366 203.6 721.566 203.533 719.966 203.4C718.499 203.4 716.632 203.333 714.366 203.2C712.099 203.2 709.766 203.133 707.366 203C704.966 203 702.766 203 700.766 203C698.766 203 696.499 203.067 693.966 203.2C691.566 203.467 689.166 203.667 686.766 203.8C684.366 203.933 682.366 204.067 680.766 204.2C679.299 204.467 678.566 204.6 678.566 204.6L679.566 192.2ZM732.741 205L734.141 191.6C739.741 190.8 743.541 189.2 745.541 186.8C747.541 184.4 748.541 180.267 748.541 174.4L748.741 98.2C748.741 93.8 748.341 90.9333 747.541 89.6C746.741 88.1333 745.007 87.4 742.341 87.4C741.541 87.4 740.541 87.4667 739.341 87.6C738.141 87.6 737.074 87.6667 736.141 87.8L734.941 86L736.541 74C739.607 74 743.274 74.0667 747.541 74.2C751.807 74.3333 756.141 74.4667 760.541 74.6C765.074 74.6 769.141 74.6 772.741 74.6C782.341 74.6 790.941 74.5333 798.541 74.4C806.141 74.2667 812.807 74 818.541 73.6C824.407 73.2 829.407 72.7333 833.541 72.2L835.141 74.4C834.474 77.7333 833.807 81.5333 833.141 85.8C832.474 90.0667 831.941 94.4 831.541 98.8C831.141 103.067 830.807 107 830.541 110.6L812.741 111.8C812.874 110.733 812.941 109.4 812.941 107.8C813.074 106.067 813.141 104.733 813.141 103.8C813.141 101 812.874 98.8 812.341 97.2C811.807 95.4667 810.674 94.2 808.941 93.4C807.207 92.4667 804.607 91.8667 801.141 91.6C797.807 91.2 793.274 91 787.541 91C784.341 91 781.941 91.1333 780.341 91.4C778.874 91.6667 777.941 92.2667 777.541 93.2C777.141 94.1333 776.874 95.6667 776.741 97.8L774.741 141.2L774.141 175.6C774.141 179.2 774.407 181.867 774.941 183.6C775.607 185.2 776.807 186.267 778.541 186.8C780.407 187.333 783.274 187.6 787.141 187.6C793.407 187.6 798.474 187.333 802.341 186.8C806.207 186.267 809.207 185.267 811.341 183.8C813.474 182.2 815.074 179.867 816.141 176.8C817.207 173.733 818.074 169.733 818.741 164.8L835.141 163.4L836.541 165.2C835.607 170.133 834.607 176.067 833.541 183C832.607 189.933 831.807 196.333 831.141 202.2L829.141 204.4C821.941 204.133 814.407 203.867 806.541 203.6C798.807 203.467 791.474 203.333 784.541 203.2C777.607 203.067 771.741 203 766.941 203C762.141 203 756.541 203.133 750.141 203.4C743.741 203.8 737.941 204.333 732.741 205ZM772.141 147.4L773.741 129.2C774.674 129.2 776.341 129.2 778.741 129.2C781.141 129.2 783.741 129.267 786.541 129.4C789.341 129.4 791.874 129.4 794.141 129.4C796.274 129.4 799.674 129.2 804.341 128.8C809.007 128.4 813.341 128 817.341 127.6L818.941 129.4L816.141 146.4C812.674 146.267 808.341 146.133 803.141 146C797.941 145.867 793.541 145.8 789.941 145.8C787.007 145.8 783.874 146 780.541 146.4C777.207 146.667 774.407 147 772.141 147.4ZM894.281 204.2L893.481 203.2L895.081 193.4C897.881 193.267 899.881 192.933 901.081 192.4C902.281 191.733 902.881 190.867 902.881 189.8C902.881 189.133 902.681 188.333 902.281 187.4C901.881 186.467 901.215 185.333 900.281 184L888.281 167.6C886.415 169.867 884.281 172.467 881.881 175.4C879.615 178.333 877.615 181.067 875.881 183.6C874.281 186.133 873.481 187.933 873.481 189C873.481 190.467 874.015 191.467 875.081 192C876.148 192.533 878.081 192.867 880.881 193L881.481 194.2L880.081 203.8C880.081 203.8 879.281 203.733 877.681 203.6C876.215 203.6 874.348 203.533 872.081 203.4C869.815 203.267 867.615 203.133 865.481 203C863.348 203 861.681 203 860.481 203C858.481 203 856.281 203 853.881 203C851.481 203.133 849.415 203.267 847.681 203.4C846.081 203.533 845.281 203.6 845.281 203.6L844.481 202.2L846.081 192.8C847.815 191.867 849.481 190.733 851.081 189.4C852.681 188.067 854.415 186.267 856.281 184C858.281 181.733 860.815 178.8 863.881 175.2L879.881 156.2L866.281 137.4C863.748 133.8 861.481 131 859.481 129C857.481 127 855.415 125.533 853.281 124.6C851.148 123.667 848.615 122.933 845.681 122.4L845.281 121.4L846.481 110.4C846.481 110.4 847.615 110.467 849.881 110.6C852.281 110.6 855.215 110.667 858.681 110.8C862.281 110.8 865.948 110.8 869.681 110.8C873.815 110.8 877.748 110.733 881.481 110.6C885.215 110.467 888.215 110.333 890.481 110.2C892.881 110.067 894.081 110 894.081 110L894.881 111.2L893.481 121.2C888.415 121.2 885.881 122.467 885.881 125C885.881 126.6 886.281 128.067 887.081 129.4C887.881 130.733 888.948 132.267 890.281 134L898.681 145.8L908.281 133.4C909.748 131.4 910.881 129.733 911.681 128.4C912.615 127.067 913.081 125.733 913.081 124.4C913.081 123.333 912.615 122.667 911.681 122.4C910.748 122 908.815 121.8 905.881 121.8L905.481 121L906.681 110.8H924.281C926.681 110.8 929.148 110.733 931.681 110.6C934.348 110.467 936.548 110.4 938.281 110.4C940.148 110.267 941.081 110.2 941.081 110.2L941.681 111.2L940.481 121.8C937.681 123.267 934.815 125.267 931.881 127.8C928.948 130.333 926.148 133.333 923.481 136.8L907.481 157.2L923.081 178.4C926.415 182.933 929.481 186.333 932.281 188.6C935.215 190.733 938.615 191.933 942.481 192.2L943.081 193L941.481 203.4C941.481 203.4 940.281 203.333 937.881 203.2C935.481 203.2 932.748 203.133 929.681 203C926.615 203 924.081 203 922.081 203C920.215 203 917.748 203.067 914.681 203.2C911.615 203.333 908.481 203.467 905.281 203.6C902.215 203.733 899.615 203.867 897.481 204C895.348 204.133 894.281 204.2 894.281 204.2ZM984.7 205.4C975.233 205.4 968.3 203.4 963.9 199.4C959.5 195.4 957.3 189.2 957.3 180.8V136.2C957.3 132.067 956.567 129.267 955.1 127.8C953.633 126.333 950.767 125.533 946.5 125.4L944.5 124L945.9 114.2C950.167 112.2 954.3 110 958.3 107.6C962.3 105.067 965.833 102.733 968.9 100.6C972.1 98.3333 974.633 96.5333 976.5 95.2C978.367 93.7333 979.3 93 979.3 93L984.9 95.8C984.9 95.8 984.633 97.3333 984.1 100.4C983.7 103.333 983.233 107.533 982.7 113L1006.3 112.4L1007.1 113.4L1005.1 126.8L981.5 126.2C981.1 131.933 980.767 138.467 980.5 145.8C980.367 153 980.3 161 980.3 169.8C980.3 175.533 981.3 179.667 983.3 182.2C985.3 184.733 988.567 186 993.1 186C996.033 186 998.767 185.533 1001.3 184.6C1003.83 183.667 1005.1 183.2 1005.1 183.2L1007.7 189.6C1007.7 189.6 1006.77 190.4 1004.9 192C1003.17 193.6 1000.97 195.467 998.3 197.6C995.767 199.6 993.233 201.4 990.7 203C988.167 204.6 986.167 205.4 984.7 205.4Z" fill="#020617"/>
</svg>
