<svg width="773" height="277" viewBox="0 0 773 277" fill="none" xmlns="http://www.w3.org/2000/svg">
<path fill-rule="evenodd" clip-rule="evenodd" d="M245.301 137.067C245.312 157.717 250.732 174.442 257.413 174.442C264.097 174.442 269.52 157.703 269.531 137.077C269.52 116.427 264.108 99.6948 257.42 99.6948C250.732 99.6983 245.29 116.431 245.301 137.067Z" fill="#020617"/>
<path fill-rule="evenodd" clip-rule="evenodd" d="M93.6102 13.6616C38.3329 35.3838 4.20602e-06 82.8187 4.20602e-06 137.815C-0.0146631 192.821 38.3329 240.249 93.6359 261.961C61.9509 236.012 40.9034 190.097 40.9034 137.818C40.9034 85.5392 61.9656 39.6276 93.6102 13.6616Z" fill="#020617"/>
<path fill-rule="evenodd" clip-rule="evenodd" d="M132.258 0C106.348 0 85.3113 61.9534 85.3113 138.304C85.3113 214.699 106.344 276.615 132.276 276.621C145.077 276.615 156.697 261.468 165.164 236.932C172.329 253.435 181.349 263.297 191.139 263.297C214.486 263.304 233.425 207.548 233.407 138.783C233.425 70.0211 214.501 14.2548 191.161 14.2825C181.441 14.2825 172.486 23.9881 165.343 40.252C156.855 15.3999 145.172 0.01388 132.258 0ZM227.14 138.79C227.158 177.379 217.005 208.686 204.501 208.686C191.99 208.686 181.855 177.376 181.855 138.803C181.855 100.193 191.99 68.8968 204.501 68.883C217.02 68.8934 227.155 100.186 227.14 138.79ZM163.217 45.4154C154.434 68.2341 148.89 101.598 148.89 138.786C148.887 175.648 154.332 208.762 162.975 231.56C158.758 236.97 154.108 239.971 149.231 239.971C130.156 239.957 114.712 194.455 114.712 138.304C114.712 82.18 130.156 36.6571 149.206 36.6571C154.2 36.6675 158.941 39.8044 163.217 45.4154Z" fill="#020617"/>
<path d="M323.32 175.536C315.811 175.536 309.283 173.915 303.736 170.672C298.275 167.344 294.051 162.651 291.064 156.592C288.163 150.533 286.712 143.365 286.712 135.088C286.712 128.432 287.693 122.373 289.656 116.912C291.619 111.365 294.435 106.629 298.104 102.704C301.859 98.6933 306.296 95.6213 311.416 93.488C316.621 91.3547 322.381 90.288 328.696 90.288C336.461 90.288 343.075 91.9093 348.536 95.152C354.083 98.3947 358.349 103.003 361.336 108.976C364.323 114.949 365.816 122.075 365.816 130.352C365.816 137.179 364.792 143.365 362.744 148.912C360.696 154.373 357.795 159.109 354.04 163.12C350.285 167.045 345.805 170.117 340.6 172.336C335.395 174.469 329.635 175.536 323.32 175.536ZM326.648 164.656C330.744 164.656 334.243 163.589 337.144 161.456C340.045 159.323 342.264 156.208 343.8 152.112C345.421 147.931 346.232 142.896 346.232 137.008C346.232 129.499 345.379 123.184 343.672 118.064C342.051 112.944 339.661 109.061 336.504 106.416C333.347 103.771 329.549 102.448 325.112 102.448C321.101 102.448 317.645 103.557 314.744 105.776C311.928 107.909 309.752 111.024 308.216 115.12C306.68 119.216 305.912 124.208 305.912 130.096C305.912 137.52 306.723 143.835 308.344 149.04C310.051 154.16 312.44 158.043 315.512 160.688C318.669 163.333 322.381 164.656 326.648 164.656ZM373.215 204.208L374.239 196.4C376.628 196.144 378.164 195.504 378.847 194.48C379.615 193.456 380.042 191.408 380.127 188.336C380.212 186.715 380.298 184.709 380.383 182.32C380.468 180.016 380.554 177.627 380.639 175.152C380.724 172.763 380.767 170.629 380.767 168.752V132.528C380.767 129.627 380.298 127.621 379.359 126.512C378.506 125.403 376.884 124.848 374.495 124.848H372.831L372.319 124.208L372.959 117.552C376.799 116.955 380.511 116.357 384.095 115.76C387.679 115.077 390.58 114.523 392.799 114.096C395.103 113.584 396.255 113.328 396.255 113.328L397.407 114.608C397.407 114.608 397.194 115.504 396.767 117.296C396.426 119.003 396.17 120.795 395.999 122.672L396.511 123.312C399.839 120.24 402.612 117.936 404.831 116.4C407.05 114.779 408.586 113.968 409.439 113.968C414.474 113.968 418.868 115.12 422.623 117.424C426.463 119.728 429.45 123.013 431.583 127.28C433.716 131.461 434.783 136.368 434.783 142C434.783 147.035 433.93 151.6 432.223 155.696C430.602 159.707 428.255 163.205 425.183 166.192C422.196 169.093 418.612 171.355 414.431 172.976C410.335 174.512 405.812 175.28 400.863 175.28C400.266 175.28 399.498 175.237 398.559 175.152C397.706 175.067 396.938 174.981 396.255 174.896C395.572 174.896 395.231 174.896 395.231 174.896C395.231 176.773 395.231 178.693 395.231 180.656C395.316 182.704 395.359 184.752 395.359 186.8C395.359 190.128 395.615 192.432 396.127 193.712C396.639 194.992 397.919 195.632 399.967 195.632C400.906 195.632 401.887 195.589 402.911 195.504C404.02 195.419 404.788 195.376 405.215 195.376L405.471 195.888L404.063 203.696C403.551 203.696 402.655 203.653 401.375 203.568C400.18 203.568 398.815 203.525 397.279 203.44C395.828 203.44 394.335 203.44 392.799 203.44C391.263 203.44 389.898 203.44 388.703 203.44C386.314 203.44 383.924 203.483 381.535 203.568C379.146 203.739 377.14 203.867 375.519 203.952C373.983 204.123 373.215 204.208 373.215 204.208ZM405.343 164.912C409.524 164.912 412.767 163.376 415.071 160.304C417.375 157.147 418.527 152.667 418.527 146.864C418.527 142.683 417.972 139.056 416.863 135.984C415.839 132.912 414.346 130.565 412.383 128.944C410.506 127.237 408.287 126.384 405.727 126.384C404.532 126.384 403.082 126.768 401.375 127.536C399.668 128.219 398.047 129.157 396.511 130.352C396.34 133.68 396.17 137.264 395.999 141.104C395.914 144.944 395.828 148.784 395.743 152.624C395.743 156.379 395.743 159.835 395.743 162.992C396.682 163.333 398.047 163.76 399.839 164.272C401.631 164.699 403.466 164.912 405.343 164.912ZM470.381 175.536C464.408 175.536 459.245 174.341 454.893 171.952C450.626 169.563 447.298 166.149 444.909 161.712C442.605 157.275 441.453 152.069 441.453 146.096C441.453 141.403 442.221 137.093 443.757 133.168C445.293 129.243 447.426 125.829 450.157 122.928C452.888 119.941 456.088 117.637 459.757 116.016C463.426 114.309 467.394 113.456 471.661 113.456C485.997 113.456 493.165 120.709 493.165 135.216C493.165 136.496 493.037 137.819 492.781 139.184C492.61 140.549 492.44 141.616 492.269 142.384L490.733 143.92H457.581C457.752 149.808 459.117 154.416 461.677 157.744C464.322 160.987 467.992 162.779 472.685 163.12C477.378 163.461 482.882 162.181 489.197 159.28L490.093 159.792L492.141 166.064C490.434 167.344 488.301 168.752 485.741 170.288C483.181 171.739 480.536 172.976 477.805 174C475.074 175.024 472.6 175.536 470.381 175.536ZM457.581 136.88L475.117 135.856C476.141 135.771 476.781 135.557 477.037 135.216C477.378 134.789 477.549 134.021 477.549 132.912C477.549 129.84 476.866 127.493 475.501 125.872C474.136 124.251 472.13 123.44 469.485 123.44C466.157 123.44 463.426 124.592 461.293 126.896C459.245 129.115 458.008 132.443 457.581 136.88ZM538.082 167.088C540.215 166.661 541.709 165.893 542.562 164.784C543.501 163.589 544.013 161.968 544.098 159.92L544.482 137.776C544.482 134.021 543.799 131.248 542.434 129.456C541.069 127.579 538.978 126.64 536.162 126.64C534.797 126.64 533.346 126.939 531.81 127.536C530.359 128.048 529.037 128.688 527.842 129.456C526.647 130.224 525.666 130.907 524.898 131.504C524.813 133.808 524.685 136.411 524.514 139.312C524.343 142.213 524.173 145.115 524.002 148.016C523.917 150.832 523.831 153.349 523.746 155.568C523.661 157.787 523.618 159.365 523.618 160.304C523.618 162.523 523.917 164.059 524.514 164.912C525.111 165.68 526.093 166.064 527.458 166.064C528.055 166.064 528.781 166.064 529.634 166.064C530.487 165.979 530.914 165.936 530.914 165.936L531.17 166.448L529.89 174.384C529.89 174.384 529.122 174.341 527.586 174.256C526.05 174.171 524.215 174.085 522.082 174C520.034 174 518.157 174 516.45 174C514.231 174 511.927 174.043 509.538 174.128C507.234 174.299 505.271 174.427 503.65 174.512C502.114 174.683 501.346 174.768 501.346 174.768L502.37 166.832C504.845 166.491 506.551 165.808 507.49 164.784C508.514 163.76 509.026 162.053 509.026 159.664V132.528C509.026 129.627 508.557 127.621 507.618 126.512C506.765 125.403 505.143 124.848 502.754 124.848H501.09L500.578 124.208L501.218 117.552C505.143 116.955 508.898 116.357 512.482 115.76C516.066 115.077 519.01 114.523 521.314 114.096C523.618 113.584 524.77 113.328 524.77 113.328L525.794 114.608C525.794 114.608 525.581 115.547 525.154 117.424C524.813 119.216 524.557 121.221 524.386 123.44L524.898 123.952C525.922 123.099 527.159 122.075 528.61 120.88C530.146 119.685 531.725 118.533 533.346 117.424C535.053 116.315 536.631 115.376 538.082 114.608C539.533 113.84 540.685 113.456 541.538 113.456C547.597 113.456 552.29 114.907 555.618 117.808C559.031 120.709 560.738 124.763 560.738 129.968C560.738 131.248 560.61 133.211 560.354 135.856C560.098 138.501 559.799 141.403 559.458 144.56C559.202 147.717 558.946 150.704 558.69 153.52C558.519 156.336 558.434 158.555 558.434 160.176C558.434 162.309 558.733 163.888 559.33 164.912C559.927 165.851 560.951 166.32 562.402 166.32C563.17 166.32 564.023 166.277 564.962 166.192C565.901 166.107 566.37 166.064 566.37 166.064L566.626 166.576L565.474 174.384C565.474 174.384 564.962 174.341 563.938 174.256C562.999 174.256 561.805 174.213 560.354 174.128C558.903 174.128 557.41 174.085 555.874 174C554.338 174 552.93 174 551.65 174C550.37 174 548.919 174.043 547.298 174.128C545.762 174.299 544.226 174.427 542.69 174.512C541.154 174.597 539.874 174.683 538.85 174.768C537.911 174.939 537.442 175.024 537.442 175.024L538.082 167.088ZM572.114 175.28L573.01 166.704C576.594 166.192 579.026 165.168 580.306 163.632C581.586 162.096 582.226 159.451 582.226 155.696L582.354 106.928C582.354 104.112 582.098 102.277 581.586 101.424C581.074 100.485 579.965 100.016 578.258 100.016C577.746 100.016 577.106 100.059 576.338 100.144C575.57 100.144 574.887 100.187 574.29 100.272L573.522 99.12L574.546 91.44C576.509 91.44 578.855 91.4827 581.586 91.568C584.317 91.6533 587.09 91.7387 589.906 91.824C592.807 91.824 595.41 91.824 597.714 91.824C603.858 91.824 609.362 91.7813 614.226 91.696C619.09 91.6107 623.357 91.44 627.026 91.184C630.781 90.928 633.981 90.6293 636.626 90.288L637.65 91.696C637.223 93.8293 636.797 96.2613 636.37 98.992C635.943 101.723 635.602 104.496 635.346 107.312C635.09 110.043 634.877 112.56 634.706 114.864L623.314 115.632C623.399 114.949 623.442 114.096 623.442 113.072C623.527 111.963 623.57 111.109 623.57 110.512C623.57 108.72 623.399 107.312 623.058 106.288C622.717 105.179 621.991 104.368 620.882 103.856C619.773 103.259 618.109 102.875 615.89 102.704C613.757 102.448 610.855 102.32 607.186 102.32C605.138 102.32 603.602 102.405 602.578 102.576C601.639 102.747 601.042 103.131 600.786 103.728C600.53 104.325 600.359 105.307 600.274 106.672L598.994 134.448L598.61 156.464C598.61 158.768 598.781 160.475 599.122 161.584C599.549 162.608 600.317 163.291 601.426 163.632C602.621 163.973 604.455 164.144 606.93 164.144C610.941 164.144 614.183 163.973 616.658 163.632C619.133 163.291 621.053 162.651 622.418 161.712C623.783 160.688 624.807 159.195 625.49 157.232C626.173 155.269 626.727 152.709 627.154 149.552L637.65 148.656L638.546 149.808C637.949 152.965 637.309 156.763 636.626 161.2C636.029 165.637 635.517 169.733 635.09 173.488L633.81 174.896C629.202 174.725 624.381 174.555 619.346 174.384C614.397 174.299 609.703 174.213 605.266 174.128C600.829 174.043 597.074 174 594.002 174C590.93 174 587.346 174.085 583.25 174.256C579.154 174.512 575.442 174.853 572.114 175.28ZM597.33 138.416L598.354 126.768C598.951 126.768 600.018 126.768 601.554 126.768C603.09 126.768 604.754 126.811 606.546 126.896C608.338 126.896 609.959 126.896 611.41 126.896C612.775 126.896 614.951 126.768 617.938 126.512C620.925 126.256 623.698 126 626.258 125.744L627.282 126.896L625.49 137.776C623.271 137.691 620.498 137.605 617.17 137.52C613.842 137.435 611.026 137.392 608.722 137.392C606.845 137.392 604.839 137.52 602.706 137.776C600.573 137.947 598.781 138.16 597.33 138.416ZM675.5 174.768L674.988 174.128L676.012 167.856C677.804 167.771 679.084 167.557 679.852 167.216C680.62 166.789 681.004 166.235 681.004 165.552C681.004 165.125 680.876 164.613 680.62 164.016C680.364 163.419 679.937 162.693 679.34 161.84L671.66 151.344C670.465 152.795 669.1 154.459 667.564 156.336C666.113 158.213 664.833 159.963 663.724 161.584C662.7 163.205 662.188 164.357 662.188 165.04C662.188 165.979 662.529 166.619 663.212 166.96C663.895 167.301 665.132 167.515 666.924 167.6L667.308 168.368L666.412 174.512C666.412 174.512 665.9 174.469 664.876 174.384C663.937 174.384 662.743 174.341 661.292 174.256C659.841 174.171 658.433 174.085 657.068 174C655.703 174 654.636 174 653.868 174C652.588 174 651.18 174 649.644 174C648.108 174.085 646.785 174.171 645.676 174.256C644.652 174.341 644.14 174.384 644.14 174.384L643.628 173.488L644.652 167.472C645.761 166.875 646.828 166.149 647.852 165.296C648.876 164.443 649.985 163.291 651.18 161.84C652.46 160.389 654.081 158.512 656.044 156.208L666.284 144.048L657.58 132.016C655.959 129.712 654.508 127.92 653.228 126.64C651.948 125.36 650.625 124.421 649.26 123.824C647.895 123.227 646.273 122.757 644.396 122.416L644.14 121.776L644.908 114.736C644.908 114.736 645.633 114.779 647.084 114.864C648.62 114.864 650.497 114.907 652.716 114.992C655.02 114.992 657.367 114.992 659.756 114.992C662.401 114.992 664.919 114.949 667.308 114.864C669.697 114.779 671.617 114.693 673.068 114.608C674.604 114.523 675.372 114.48 675.372 114.48L675.884 115.248L674.988 121.648C671.745 121.648 670.124 122.459 670.124 124.08C670.124 125.104 670.38 126.043 670.892 126.896C671.404 127.749 672.087 128.731 672.94 129.84L678.316 137.392L684.46 129.456C685.399 128.176 686.124 127.109 686.636 126.256C687.233 125.403 687.532 124.549 687.532 123.696C687.532 123.013 687.233 122.587 686.636 122.416C686.039 122.16 684.801 122.032 682.924 122.032L682.668 121.52L683.436 114.992H694.7C696.236 114.992 697.815 114.949 699.436 114.864C701.143 114.779 702.551 114.736 703.66 114.736C704.855 114.651 705.452 114.608 705.452 114.608L705.836 115.248L705.068 122.032C703.276 122.971 701.441 124.251 699.564 125.872C697.687 127.493 695.895 129.413 694.188 131.632L683.948 144.688L693.932 158.256C696.065 161.157 698.028 163.333 699.82 164.784C701.697 166.149 703.873 166.917 706.348 167.088L706.732 167.6L705.708 174.256C705.708 174.256 704.94 174.213 703.404 174.128C701.868 174.128 700.119 174.085 698.156 174C696.193 174 694.572 174 693.292 174C692.097 174 690.519 174.043 688.556 174.128C686.593 174.213 684.588 174.299 682.54 174.384C680.577 174.469 678.913 174.555 677.548 174.64C676.183 174.725 675.5 174.768 675.5 174.768ZM733.368 175.536C727.309 175.536 722.872 174.256 720.056 171.696C717.24 169.136 715.832 165.168 715.832 159.792V131.248C715.832 128.603 715.363 126.811 714.424 125.872C713.485 124.933 711.651 124.421 708.92 124.336L707.64 123.44L708.536 117.168C711.267 115.888 713.912 114.48 716.472 112.944C719.032 111.323 721.293 109.829 723.256 108.464C725.304 107.013 726.925 105.861 728.12 105.008C729.315 104.069 729.912 103.6 729.912 103.6L733.496 105.392C733.496 105.392 733.325 106.373 732.984 108.336C732.728 110.213 732.429 112.901 732.088 116.4L747.192 116.016L747.704 116.656L746.424 125.232L731.32 124.848C731.064 128.517 730.851 132.699 730.68 137.392C730.595 142 730.552 147.12 730.552 152.752C730.552 156.421 731.192 159.067 732.472 160.688C733.752 162.309 735.843 163.12 738.744 163.12C740.621 163.12 742.371 162.821 743.992 162.224C745.613 161.627 746.424 161.328 746.424 161.328L748.088 165.424C748.088 165.424 747.491 165.936 746.296 166.96C745.187 167.984 743.779 169.179 742.072 170.544C740.451 171.824 738.829 172.976 737.208 174C735.587 175.024 734.307 175.536 733.368 175.536Z" fill="#020617"/>
</svg>
