<svg width="658" height="278" viewBox="0 0 658 278" fill="none" xmlns="http://www.w3.org/2000/svg">
<path fill-rule="evenodd" clip-rule="evenodd" d="M245.346 137.932C245.357 158.582 250.776 175.308 257.457 175.308C264.142 175.308 269.565 158.569 269.576 137.943C269.565 117.293 264.153 100.561 257.465 100.561C250.776 100.564 245.335 117.296 245.346 137.932Z" fill="#1A7F75"/>
<path fill-rule="evenodd" clip-rule="evenodd" d="M93.6549 14.5273C38.3776 36.2495 0.0446819 83.6844 0.0446819 138.68C0.0300147 193.687 38.3776 241.115 93.6806 262.827C61.9956 236.878 40.948 190.963 40.948 138.684C40.948 86.4049 62.0103 40.4934 93.6549 14.5273Z" fill="#1A7F75"/>
<path fill-rule="evenodd" clip-rule="evenodd" d="M132.302 0.865723C106.392 0.865723 85.356 62.8191 85.356 139.17C85.356 215.565 106.389 277.48 132.321 277.487C145.121 277.48 156.742 262.334 165.208 237.797C172.373 254.301 181.394 264.162 191.184 264.162C214.531 264.169 233.47 208.413 233.451 139.648C233.47 70.8868 214.545 15.1205 191.206 15.1482C181.485 15.1482 172.531 24.8538 165.388 41.1177C156.899 16.2656 145.217 0.879603 132.302 0.865723ZM227.185 139.655C227.203 178.245 217.05 209.552 204.546 209.552C192.035 209.552 181.9 178.242 181.9 139.669C181.9 101.058 192.035 69.7626 204.546 69.7487C217.064 69.7591 227.2 101.052 227.185 139.655ZM163.261 46.2811C154.479 69.0998 148.935 102.464 148.935 139.652C148.931 176.514 154.376 209.628 163.019 232.426C158.802 237.835 154.153 240.837 149.276 240.837C130.201 240.823 114.757 195.321 114.757 139.17C114.757 83.0457 130.201 37.5228 149.25 37.5228C154.244 37.5332 158.986 40.6701 163.261 46.2811Z" fill="#1A7F75"/>
<path d="M313.53 173.236C307.487 173.236 302.234 171.931 297.771 169.322C293.376 166.644 289.977 162.867 287.574 157.992C285.239 153.117 284.072 147.349 284.072 140.688C284.072 135.332 284.862 130.457 286.441 126.062C288.02 121.599 290.286 117.788 293.239 114.629C296.26 111.402 299.831 108.93 303.951 107.213C308.14 105.496 312.775 104.638 317.856 104.638C324.105 104.638 329.426 105.943 333.821 108.552C338.284 111.161 341.718 114.869 344.121 119.676C346.524 124.483 347.726 130.216 347.726 136.877C347.726 142.37 346.902 147.349 345.254 151.812C343.606 156.207 341.271 160.018 338.25 163.245C335.229 166.404 331.624 168.876 327.435 170.661C323.246 172.378 318.611 173.236 313.53 173.236ZM316.208 164.481C319.504 164.481 322.319 163.623 324.654 161.906C326.989 160.189 328.774 157.683 330.01 154.387C331.315 151.022 331.967 146.971 331.967 142.233C331.967 136.19 331.28 131.109 329.907 126.989C328.602 122.869 326.68 119.745 324.139 117.616C321.598 115.487 318.543 114.423 314.972 114.423C311.745 114.423 308.964 115.316 306.629 117.101C304.363 118.818 302.612 121.324 301.376 124.62C300.14 127.916 299.522 131.933 299.522 136.671C299.522 142.645 300.174 147.726 301.479 151.915C302.852 156.035 304.775 159.159 307.247 161.288C309.788 163.417 312.775 164.481 316.208 164.481ZM353.68 196.308L354.504 190.025C356.427 189.819 357.663 189.304 358.212 188.48C358.83 187.656 359.173 186.008 359.242 183.536C359.311 182.231 359.379 180.618 359.448 178.695C359.517 176.841 359.585 174.918 359.654 172.927C359.723 171.004 359.757 169.288 359.757 167.777V138.628C359.757 136.293 359.379 134.68 358.624 133.787C357.937 132.894 356.633 132.448 354.71 132.448H353.371L352.959 131.933L353.474 126.577C356.564 126.096 359.551 125.616 362.435 125.135C365.319 124.586 367.654 124.139 369.439 123.796C371.293 123.384 372.22 123.178 372.22 123.178L373.147 124.208C373.147 124.208 372.975 124.929 372.632 126.371C372.357 127.744 372.151 129.186 372.014 130.697L372.426 131.212C375.104 128.74 377.336 126.886 379.121 125.65C380.906 124.345 382.142 123.693 382.829 123.693C386.88 123.693 390.417 124.62 393.438 126.474C396.528 128.328 398.931 130.972 400.648 134.405C402.365 137.77 403.223 141.718 403.223 146.25C403.223 150.301 402.536 153.975 401.163 157.271C399.858 160.498 397.97 163.314 395.498 165.717C393.095 168.052 390.211 169.871 386.846 171.176C383.55 172.412 379.911 173.03 375.928 173.03C375.447 173.03 374.829 172.996 374.074 172.927C373.387 172.858 372.769 172.79 372.22 172.721C371.671 172.721 371.396 172.721 371.396 172.721C371.396 174.232 371.396 175.777 371.396 177.356C371.465 179.004 371.499 180.652 371.499 182.3C371.499 184.978 371.705 186.832 372.117 187.862C372.529 188.892 373.559 189.407 375.207 189.407C375.962 189.407 376.752 189.373 377.576 189.304C378.469 189.235 379.087 189.201 379.43 189.201L379.636 189.613L378.503 195.896C378.091 195.896 377.37 195.862 376.34 195.793C375.379 195.793 374.28 195.759 373.044 195.69C371.877 195.69 370.675 195.69 369.439 195.69C368.203 195.69 367.104 195.69 366.143 195.69C364.22 195.69 362.298 195.724 360.375 195.793C358.452 195.93 356.839 196.033 355.534 196.102C354.298 196.239 353.68 196.308 353.68 196.308ZM379.533 164.687C382.898 164.687 385.507 163.451 387.361 160.979C389.215 158.438 390.142 154.833 390.142 150.164C390.142 146.799 389.696 143.881 388.803 141.409C387.979 138.937 386.777 137.049 385.198 135.744C383.687 134.371 381.902 133.684 379.842 133.684C378.881 133.684 377.713 133.993 376.34 134.611C374.967 135.16 373.662 135.916 372.426 136.877C372.289 139.555 372.151 142.439 372.014 145.529C371.945 148.619 371.877 151.709 371.808 154.799C371.808 157.82 371.808 160.601 371.808 163.142C372.563 163.417 373.662 163.76 375.104 164.172C376.546 164.515 378.022 164.687 379.533 164.687ZM431.868 173.236C427.061 173.236 422.907 172.275 419.405 170.352C415.972 168.429 413.294 165.683 411.371 162.112C409.517 158.541 408.59 154.353 408.59 149.546C408.59 145.769 409.208 142.302 410.444 139.143C411.68 135.984 413.397 133.238 415.594 130.903C417.791 128.5 420.366 126.646 423.319 125.341C426.272 123.968 429.465 123.281 432.898 123.281C444.434 123.281 450.202 129.118 450.202 140.791C450.202 141.821 450.099 142.885 449.893 143.984C449.756 145.083 449.618 145.941 449.481 146.559L448.245 147.795H421.568C421.705 152.533 422.804 156.241 424.864 158.919C426.993 161.528 429.945 162.97 433.722 163.245C437.499 163.52 441.928 162.49 447.009 160.155L447.73 160.567L449.378 165.614C448.005 166.644 446.288 167.777 444.228 169.013C442.168 170.18 440.039 171.176 437.842 172C435.645 172.824 433.653 173.236 431.868 173.236ZM421.568 142.13L435.679 141.306C436.503 141.237 437.018 141.066 437.224 140.791C437.499 140.448 437.636 139.83 437.636 138.937C437.636 136.465 437.087 134.577 435.988 133.272C434.889 131.967 433.276 131.315 431.147 131.315C428.469 131.315 426.272 132.242 424.555 134.096C422.907 135.881 421.911 138.559 421.568 142.13ZM486.346 166.438C488.063 166.095 489.265 165.477 489.951 164.584C490.707 163.623 491.119 162.318 491.187 160.67L491.496 142.851C491.496 139.83 490.947 137.598 489.848 136.156C488.75 134.645 487.067 133.89 484.801 133.89C483.703 133.89 482.535 134.13 481.299 134.611C480.132 135.023 479.068 135.538 478.106 136.156C477.145 136.774 476.355 137.323 475.737 137.804C475.669 139.658 475.566 141.752 475.428 144.087C475.291 146.422 475.154 148.756 475.016 151.091C474.948 153.357 474.879 155.383 474.81 157.168C474.742 158.953 474.707 160.224 474.707 160.979C474.707 162.764 474.948 164 475.428 164.687C475.909 165.305 476.699 165.614 477.797 165.614C478.278 165.614 478.862 165.614 479.548 165.614C480.235 165.545 480.578 165.511 480.578 165.511L480.784 165.923L479.754 172.309C479.754 172.309 479.136 172.275 477.9 172.206C476.664 172.137 475.188 172.069 473.471 172C471.823 172 470.313 172 468.939 172C467.154 172 465.3 172.034 463.377 172.103C461.523 172.24 459.944 172.343 458.639 172.412C457.403 172.549 456.785 172.618 456.785 172.618L457.609 166.232C459.601 165.957 460.974 165.408 461.729 164.584C462.553 163.76 462.965 162.387 462.965 160.464V138.628C462.965 136.293 462.588 134.68 461.832 133.787C461.146 132.894 459.841 132.448 457.918 132.448H456.579L456.167 131.933L456.682 126.577C459.841 126.096 462.862 125.616 465.746 125.135C468.63 124.586 470.999 124.139 472.853 123.796C474.707 123.384 475.634 123.178 475.634 123.178L476.458 124.208C476.458 124.208 476.287 124.963 475.943 126.474C475.669 127.916 475.463 129.53 475.325 131.315L475.737 131.727C476.561 131.04 477.557 130.216 478.724 129.255C479.96 128.294 481.231 127.367 482.535 126.474C483.909 125.581 485.179 124.826 486.346 124.208C487.514 123.59 488.441 123.281 489.127 123.281C494.003 123.281 497.779 124.448 500.457 126.783C503.204 129.118 504.577 132.379 504.577 136.568C504.577 137.598 504.474 139.177 504.268 141.306C504.062 143.435 503.822 145.769 503.547 148.31C503.341 150.851 503.135 153.254 502.929 155.52C502.792 157.786 502.723 159.571 502.723 160.876C502.723 162.593 502.964 163.863 503.444 164.687C503.925 165.442 504.749 165.82 505.916 165.82C506.534 165.82 507.221 165.786 507.976 165.717C508.732 165.648 509.109 165.614 509.109 165.614L509.315 166.026L508.388 172.309C508.388 172.309 507.976 172.275 507.152 172.206C506.397 172.206 505.436 172.172 504.268 172.103C503.101 172.103 501.899 172.069 500.663 172C499.427 172 498.294 172 497.264 172C496.234 172 495.067 172.034 493.762 172.103C492.526 172.24 491.29 172.343 490.054 172.412C488.818 172.481 487.788 172.549 486.964 172.618C486.209 172.755 485.831 172.824 485.831 172.824L486.346 166.438ZM513.731 173.03L514.452 166.129C517.336 165.717 519.293 164.893 520.323 163.657C521.353 162.421 521.868 160.292 521.868 157.271L521.971 118.028C521.971 115.762 521.765 114.286 521.353 113.599C520.941 112.844 520.049 112.466 518.675 112.466C518.263 112.466 517.748 112.5 517.13 112.569C516.512 112.569 515.963 112.603 515.482 112.672L514.864 111.745L515.688 105.565C517.268 105.565 519.156 105.599 521.353 105.668C523.551 105.737 525.782 105.805 528.048 105.874C530.383 105.874 532.477 105.874 534.331 105.874C539.275 105.874 543.704 105.84 547.618 105.771C551.532 105.702 554.966 105.565 557.918 105.359C560.94 105.153 563.515 104.913 565.643 104.638L566.467 105.771C566.124 107.488 565.781 109.445 565.437 111.642C565.094 113.839 564.819 116.071 564.613 118.337C564.407 120.534 564.236 122.56 564.098 124.414L554.931 125.032C555 124.483 555.034 123.796 555.034 122.972C555.103 122.079 555.137 121.393 555.137 120.912C555.137 119.47 555 118.337 554.725 117.513C554.451 116.62 553.867 115.968 552.974 115.556C552.082 115.075 550.743 114.766 548.957 114.629C547.241 114.423 544.906 114.32 541.953 114.32C540.305 114.32 539.069 114.389 538.245 114.526C537.49 114.663 537.009 114.972 536.803 115.453C536.597 115.934 536.46 116.723 536.391 117.822L535.361 140.173L535.052 157.889C535.052 159.743 535.19 161.116 535.464 162.009C535.808 162.833 536.426 163.382 537.318 163.657C538.28 163.932 539.756 164.069 541.747 164.069C544.975 164.069 547.584 163.932 549.575 163.657C551.567 163.382 553.112 162.867 554.21 162.112C555.309 161.288 556.133 160.086 556.682 158.507C557.232 156.928 557.678 154.868 558.021 152.327L566.467 151.606L567.188 152.533C566.708 155.074 566.193 158.129 565.643 161.7C565.163 165.271 564.751 168.567 564.407 171.588L563.377 172.721C559.669 172.584 555.79 172.446 551.738 172.309C547.756 172.24 543.979 172.172 540.408 172.103C536.838 172.034 533.816 172 531.344 172C528.872 172 525.988 172.069 522.692 172.206C519.396 172.412 516.409 172.687 513.731 173.03ZM534.022 143.366L534.846 133.993C535.327 133.993 536.185 133.993 537.421 133.993C538.657 133.993 539.996 134.027 541.438 134.096C542.88 134.096 544.185 134.096 545.352 134.096C546.451 134.096 548.202 133.993 550.605 133.787C553.009 133.581 555.24 133.375 557.3 133.169L558.124 134.096L556.682 142.851C554.897 142.782 552.665 142.714 549.987 142.645C547.309 142.576 545.043 142.542 543.189 142.542C541.679 142.542 540.065 142.645 538.348 142.851C536.632 142.988 535.19 143.16 534.022 143.366ZM596.925 172.618L596.513 172.103L597.337 167.056C598.779 166.987 599.809 166.816 600.427 166.541C601.045 166.198 601.354 165.751 601.354 165.202C601.354 164.859 601.251 164.447 601.045 163.966C600.839 163.485 600.495 162.902 600.015 162.215L593.835 153.769C592.873 154.936 591.775 156.275 590.539 157.786C589.371 159.297 588.341 160.704 587.449 162.009C586.625 163.314 586.213 164.241 586.213 164.79C586.213 165.545 586.487 166.06 587.037 166.335C587.586 166.61 588.582 166.781 590.024 166.85L590.333 167.468L589.612 172.412C589.612 172.412 589.2 172.378 588.376 172.309C587.62 172.309 586.659 172.275 585.492 172.206C584.324 172.137 583.191 172.069 582.093 172C580.994 172 580.136 172 579.518 172C578.488 172 577.355 172 576.119 172C574.883 172.069 573.818 172.137 572.926 172.206C572.102 172.275 571.69 172.309 571.69 172.309L571.278 171.588L572.102 166.747C572.994 166.266 573.853 165.683 574.677 164.996C575.501 164.309 576.393 163.382 577.355 162.215C578.385 161.048 579.689 159.537 581.269 157.683L589.509 147.898L582.505 138.216C581.2 136.362 580.033 134.92 579.003 133.89C577.973 132.86 576.908 132.105 575.81 131.624C574.711 131.143 573.406 130.766 571.896 130.491L571.69 129.976L572.308 124.311C572.308 124.311 572.891 124.345 574.059 124.414C575.295 124.414 576.805 124.448 578.591 124.517C580.445 124.517 582.333 124.517 584.256 124.517C586.384 124.517 588.41 124.483 590.333 124.414C592.255 124.345 593.8 124.277 594.968 124.208C596.204 124.139 596.822 124.105 596.822 124.105L597.234 124.723L596.513 129.873C593.903 129.873 592.599 130.525 592.599 131.83C592.599 132.654 592.805 133.409 593.217 134.096C593.629 134.783 594.178 135.572 594.865 136.465L599.191 142.542L604.135 136.156C604.89 135.126 605.474 134.268 605.886 133.581C606.366 132.894 606.607 132.208 606.607 131.521C606.607 130.972 606.366 130.628 605.886 130.491C605.405 130.285 604.409 130.182 602.899 130.182L602.693 129.77L603.311 124.517H612.375C613.611 124.517 614.881 124.483 616.186 124.414C617.559 124.345 618.692 124.311 619.585 124.311C620.546 124.242 621.027 124.208 621.027 124.208L621.336 124.723L620.718 130.182C619.276 130.937 617.799 131.967 616.289 133.272C614.778 134.577 613.336 136.122 611.963 137.907L603.723 148.413L611.757 159.331C613.473 161.666 615.053 163.417 616.495 164.584C618.005 165.683 619.756 166.301 621.748 166.438L622.057 166.85L621.233 172.206C621.233 172.206 620.615 172.172 619.379 172.103C618.143 172.103 616.735 172.069 615.156 172C613.576 172 612.272 172 611.242 172C610.28 172 609.01 172.034 607.431 172.103C605.851 172.172 604.238 172.24 602.59 172.309C601.01 172.378 599.671 172.446 598.573 172.515C597.474 172.584 596.925 172.618 596.925 172.618ZM643.49 173.236C638.615 173.236 635.044 172.206 632.778 170.146C630.512 168.086 629.379 164.893 629.379 160.567V137.598C629.379 135.469 629.002 134.027 628.246 133.272C627.491 132.517 626.015 132.105 623.817 132.036L622.787 131.315L623.508 126.268C625.706 125.238 627.834 124.105 629.894 122.869C631.954 121.564 633.774 120.363 635.353 119.264C637.001 118.097 638.306 117.17 639.267 116.483C640.229 115.728 640.709 115.35 640.709 115.35L643.593 116.792C643.593 116.792 643.456 117.582 643.181 119.161C642.975 120.672 642.735 122.835 642.46 125.65L654.614 125.341L655.026 125.856L653.996 132.757L641.842 132.448C641.636 135.401 641.465 138.765 641.327 142.542C641.259 146.25 641.224 150.37 641.224 154.902C641.224 157.855 641.739 159.983 642.769 161.288C643.799 162.593 645.482 163.245 647.816 163.245C649.327 163.245 650.735 163.005 652.039 162.524C653.344 162.043 653.996 161.803 653.996 161.803L655.335 165.099C655.335 165.099 654.855 165.511 653.893 166.335C653.001 167.159 651.868 168.12 650.494 169.219C649.19 170.249 647.885 171.176 646.58 172C645.276 172.824 644.246 173.236 643.49 173.236Z" fill="#1A7F75"/>
</svg>
