<?xml version="1.0" encoding="UTF-8" standalone="no" ?>
<!DOCTYPE svg PUBLIC "-//W3C//DTD SVG 1.1//EN" "http://www.w3.org/Graphics/SVG/1.1/DTD/svg11.dtd">
<svg xmlns="http://www.w3.org/2000/svg" xmlns:xlink="http://www.w3.org/1999/xlink" version="1.1" width="1080" height="1080" viewBox="0 0 1080 1080" xml:space="preserve">
<desc>Created with Fabric.js 5.2.4</desc>
<defs>
</defs>
<rect x="0" y="0" width="100%" height="100%" fill="transparent"></rect>
<g transform="matrix(1 0 0 1 540 540)" id="b15466af-2a60-4c23-8e58-e2b54751eef9"  >
</g>
<g transform="matrix(1 0 0 1 540 540)" id="cde667fd-72ec-4db1-9d35-7ef1698caf59"  >
<rect style="stroke: none; stroke-width: 1; stroke-dasharray: none; stroke-linecap: butt; stroke-dashoffset: 0; stroke-linejoin: miter; stroke-miterlimit: 4; fill: rgb(255,255,255); fill-rule: nonzero; opacity: 1; visibility: hidden;" vector-effect="non-scaling-stroke"  x="-540" y="-540" rx="0" ry="0" width="1080" height="1080" />
</g>
<g transform="matrix(0 0 0 0 0 0)"  >
<g style=""   >
</g>
</g>
<g transform="matrix(0 0 0 0 0 0)"  >
<g style=""   >
</g>
</g>
<g transform="matrix(3.47 0 0 3.47 458.84 499.64)"  >
<path style="stroke: none; stroke-width: 1; stroke-dasharray: none; stroke-linecap: butt; stroke-dashoffset: 0; stroke-linejoin: miter; stroke-miterlimit: 4; fill: rgb(26,127,117); fill-rule: evenodd; opacity: 1;" vector-effect="non-scaling-stroke"  transform=" translate(-83.41, -49.7)" d="M 80.11 49.695 C 80.113 55.646 81.591 60.466 83.413 60.466 C 85.23599999999999 60.466 86.715 55.642 86.718 49.698 C 86.715 43.747 85.239 38.925 83.415 38.925 C 81.591 38.926 80.107 43.748 80.11 49.695 z" stroke-linecap="round" />
</g>
<g transform="matrix(3.47 0 0 3.47 260.62 500.34)"  >
<path style="stroke: none; stroke-width: 1; stroke-dasharray: none; stroke-linecap: butt; stroke-dashoffset: 0; stroke-linejoin: miter; stroke-miterlimit: 4; fill: rgb(26,127,117); fill-rule: evenodd; opacity: 1;" vector-effect="non-scaling-stroke"  transform=" translate(-26.38, -49.93)" d="M 39.138 14.154 C 24.063 20.414 13.608999999999998 34.084 13.608999999999998 49.93300000000001 C 13.604999999999999 65.78500000000001 24.063 79.453 39.144999999999996 85.71000000000001 C 30.504 78.232 24.764 65 24.764 49.934 C 24.764 34.867999999999995 30.508 21.637 39.138 14.154 z" stroke-linecap="round" />
</g>
<g transform="matrix(3.47 0 0 3.47 366.08 500.86)"  >
<path style="stroke: none; stroke-width: 1; stroke-dasharray: none; stroke-linecap: butt; stroke-dashoffset: 0; stroke-linejoin: miter; stroke-miterlimit: 4; fill: rgb(26,127,117); fill-rule: evenodd; opacity: 1;" vector-effect="non-scaling-stroke"  transform=" translate(-56.74, -50.09)" d="M 49.349 10.23 C 42.282999999999994 10.23 36.54599999999999 28.084 36.54599999999999 50.087 C 36.54599999999999 72.10300000000001 42.28199999999999 89.946 49.35399999999999 89.94800000000001 C 52.84499999999999 89.94600000000001 56.013999999999996 85.581 58.32299999999999 78.51 C 60.276999999999994 83.266 62.736999999999995 86.108 65.407 86.108 C 71.774 86.11 76.939 70.042 76.934 50.225 C 76.939 30.409000000000002 71.77799999999999 14.338000000000001 65.413 14.346000000000004 C 62.762 14.346000000000004 60.31999999999999 17.143000000000004 58.372 21.830000000000005 C 56.057 14.668 52.871 10.234 49.349 10.23 z M 75.225 50.227 C 75.22999999999999 61.348 72.461 70.37 69.05099999999999 70.37 C 65.63899999999998 70.37 62.874999999999986 61.34700000000001 62.874999999999986 50.23100000000001 C 62.874999999999986 39.104000000000006 65.63899999999998 30.085000000000008 69.05099999999999 30.08100000000001 C 72.465 30.084 75.229 39.102 75.225 50.227 z M 57.792 23.318 C 55.397 29.894000000000002 53.885000000000005 39.509 53.885000000000005 50.226 C 53.88400000000001 60.849 55.36900000000001 70.392 57.726000000000006 76.962 C 56.57600000000001 78.521 55.30800000000001 79.38600000000001 53.97800000000001 79.38600000000001 C 48.77600000000001 79.382 44.56400000000001 66.269 44.56400000000001 50.08700000000001 C 44.56400000000001 33.91300000000001 48.77600000000001 20.79400000000001 53.971000000000004 20.79400000000001 C 55.333 20.797 56.626 21.701 57.792 23.318 z" stroke-linecap="round" />
</g>
<g transform="matrix(1 0 0 1 680.97 501.36)" style="" id="f9abb679-2125-4388-8271-d149815d68a4"  >
		<text xml:space="preserve" font-family="Alegreya" font-size="103" font-style="normal" font-weight="700" style="stroke: none; stroke-width: 1; stroke-dasharray: none; stroke-linecap: butt; stroke-dashoffset: 0; stroke-linejoin: miter; stroke-miterlimit: 4; fill: rgb(26,127,117); fill-rule: nonzero; opacity: 1; white-space: pre;" ><tspan x="-187.72" y="32.36" >OpenExt</tspan></text>
</g>
</svg>